# This file uses centimeters as units for non-parametric coordinates.

mtllib Lilypad2.mtl
g default
v 1.934360 4.942576 -0.484408
v 1.524098 4.942576 -1.367345
v 0.764683 4.942576 -1.937040
v -0.169911 4.942576 -2.062983
v -1.065581 4.942576 -1.716321
v -1.717139 4.942576 -0.976470
v -1.975321 4.942576 -0.012922
v -1.780981 4.942576 0.953587
v -1.178639 4.942576 1.701639
v -0.306285 4.942576 2.059868
v 0.636234 4.942576 1.946205
v 1.433000 4.942576 1.386690
v 1.901484 4.942576 0.509501
v 1.934360 5.103633 -0.484408
v 1.524098 5.103633 -1.367345
v 0.764683 5.103633 -1.937040
v -0.169911 5.103633 -2.062983
v -1.065581 5.103633 -1.716321
v -1.717139 5.103633 -0.976470
v -1.975321 5.103633 -0.012922
v -1.780981 5.103633 0.953587
v -1.178639 5.103633 1.701639
v -0.306285 5.103633 2.059868
v 0.636234 5.103633 1.946205
v 1.433000 5.103633 1.386690
v 1.901484 5.103633 0.509501
v 0.104993 4.942575 -0.089599
v 0.104993 5.103632 -0.089599
vt 0.444690 0.890491
vt 0.496108 0.779833
vt 0.727083 0.208766
vt 0.783150 0.208925
vt 0.266834 0.730352
vt 0.349513 0.961890
vt 0.120127 0.934228
vt 0.232381 0.977675
vt 0.038467 0.841503
vt 0.006109 0.720742
vt 0.030466 0.599609
vt 0.105957 0.505856
vt 0.215289 0.460960
vt 0.782485 0.443205
vt 0.726418 0.443046
vt 0.839217 0.209084
vt 0.838552 0.443364
vt 0.166414 0.207174
vt 0.222481 0.207333
vt 0.221815 0.441613
vt 0.165749 0.441454
vt 0.278548 0.207493
vt 0.277883 0.441773
vt 0.334615 0.207652
vt 0.333950 0.441932
vt 0.390682 0.207811
vt 0.390016 0.442091
vt 0.446748 0.207970
vt 0.446083 0.442250
vt 0.502816 0.208129
vt 0.502150 0.442409
vt 0.558882 0.208288
vt 0.558217 0.442568
vt 0.614949 0.208447
vt 0.614284 0.442727
vt 0.671016 0.208607
vt 0.670351 0.442887
vt 0.053983 0.003374
vt 0.949431 0.240198
vt 0.333415 0.475205
vt 0.433273 0.545329
vt 0.491988 0.655267
vt 0.991211 0.779833
vt 0.939793 0.890491
vt 0.761937 0.730352
vt 0.844616 0.961890
vt 0.727484 0.977675
vt 0.615229 0.934228
vt 0.533570 0.841503
vt 0.501212 0.720742
vt 0.987091 0.655267
vt 0.928376 0.545329
vt 0.525569 0.599609
vt 0.601060 0.505856
vt 0.710392 0.460960
vt 0.828517 0.475205
vt 0.950096 0.005918
vt 0.053318 0.237655
vn 0.906881 0.000000 -0.421387
vn 0.906881 0.000000 -0.421387
vn 0.906881 0.000000 -0.421387
vn 0.906881 0.000000 -0.421387
vn 0.600091 0.000000 -0.799932
vn 0.600091 0.000000 -0.799932
vn 0.600091 0.000000 -0.799932
vn 0.600091 0.000000 -0.799932
vn -0.360949 0.000000 -0.932586
vn -0.360949 0.000000 -0.932586
vn -0.360949 0.000000 -0.932586
vn -0.360949 0.000000 -0.932586
vn -0.750467 0.000000 -0.660908
vn -0.750467 0.000000 -0.660908
vn -0.750467 0.000000 -0.660908
vn -0.750467 0.000000 -0.660908
vn -0.965926 0.000000 -0.258819
vn -0.965926 0.000000 -0.258819
vn -0.965926 0.000000 -0.258819
vn -0.965926 0.000000 -0.258819
vn -0.980378 0.000000 0.197129
vn -0.980378 0.000000 0.197129
vn -0.980378 0.000000 0.197129
vn -0.980378 0.000000 0.197129
vn -0.778884 0.000000 0.627168
vn -0.778884 0.000000 0.627168
vn -0.778884 0.000000 0.627168
vn -0.778884 0.000000 0.627168
vn -0.379865 0.000000 0.925042
vn -0.379865 0.000000 0.925042
vn -0.379865 0.000000 0.925042
vn -0.379865 0.000000 0.925042
vn 0.119727 0.000000 0.992807
vn 0.119727 0.000000 0.992807
vn 0.119727 0.000000 0.992807
vn 0.119727 0.000000 0.992807
vn 0.574688 0.000000 0.818373
vn 0.574688 0.000000 0.818373
vn 0.574688 0.000000 0.818373
vn 0.574688 0.000000 0.818373
vn 0.882082 0.000000 0.471097
vn 0.882082 0.000000 0.471097
vn 0.882082 0.000000 0.471097
vn 0.882082 0.000000 0.471097
vn 0.999453 0.000000 0.033060
vn 0.999453 0.000000 0.033060
vn 0.999453 0.000000 0.033060
vn 0.999453 0.000000 0.033060
vn 0.000001 -1.000000 -0.000001
vn 0.000001 -1.000000 0.000000
vn 0.000000 -1.000000 0.000000
vn 0.000001 -1.000000 -0.000001
vn -0.000001 -1.000000 -0.000001
vn -0.000000 -1.000000 -0.000001
vn -0.000001 -1.000000 -0.000000
vn -0.000001 -1.000000 0.000000
vn -0.000001 -1.000000 0.000000
vn -0.000001 -1.000000 0.000001
vn -0.000000 -1.000000 0.000001
vn 0.000000 -1.000000 0.000001
vn 0.000001 -1.000000 0.000000
vn 0.000001 -1.000000 0.000000
vn -0.000001 1.000000 0.000000
vn -0.000001 1.000000 0.000000
vn -0.000000 1.000000 -0.000000
vn -0.000000 1.000000 0.000001
vn 0.000000 1.000000 0.000001
vn 0.000000 1.000000 0.000000
vn 0.000001 1.000000 -0.000001
vn 0.000001 1.000000 -0.000000
vn 0.000001 1.000000 -0.000000
vn 0.000000 1.000000 -0.000000
vn 0.000000 1.000000 -0.000000
vn -0.000000 1.000000 -0.000000
vn -0.000001 1.000000 0.000000
vn -0.000001 1.000000 0.000000
vn 0.990436 0.000000 -0.137974
vn 0.990436 0.000000 -0.137974
vn 0.990436 0.000000 -0.137974
vn 0.990436 0.000000 -0.137974
vn -0.941759 0.000000 -0.336287
vn -0.941759 0.000000 -0.336287
vn -0.941759 0.000000 -0.336287
vn -0.941759 0.000000 -0.336287
s off
g Lilypad2
usemtl initialShadingGroup
f 1/3/1 2/4/2 15/14/3 14/15/4
f 2/4/5 3/16/6 16/17/7 15/14/8
f 4/18/9 5/19/10 18/20/11 17/21/12
f 5/19/13 6/22/14 19/23/15 18/20/16
f 6/22/17 7/24/18 20/25/19 19/23/20
f 7/24/21 8/26/22 21/27/23 20/25/24
f 8/26/25 9/28/26 22/29/27 21/27/28
f 9/28/29 10/30/30 23/31/31 22/29/32
f 10/30/33 11/32/34 24/33/35 23/31/36
f 11/32/37 12/34/38 25/35/39 24/33/40
f 12/34/41 13/36/42 26/37/43 25/35/44
f 13/36/45 1/3/46 14/15/47 26/37/48
s 1
f 2/1/49 1/2/50 27/5/51
f 3/6/52 2/1/49 27/5/51
f 5/7/53 4/8/54 27/5/51
f 6/9/55 5/7/53 27/5/51
f 7/10/56 6/9/55 27/5/51
f 8/11/57 7/10/56 27/5/51
f 9/12/58 8/11/57 27/5/51
f 10/13/59 9/12/58 27/5/51
f 11/40/60 10/13/59 27/5/51
f 12/41/61 11/40/60 27/5/51
f 13/42/62 12/41/61 27/5/51
f 1/2/50 13/42/62 27/5/51
s 3
f 14/43/63 15/44/64 28/45/65
f 15/44/64 16/46/66 28/45/65
f 17/47/67 18/48/68 28/45/65
f 18/48/68 19/49/69 28/45/65
f 19/49/69 20/50/70 28/45/65
f 20/50/70 21/53/71 28/45/65
f 21/53/71 22/54/72 28/45/65
f 22/54/72 23/55/73 28/45/65
f 23/55/73 24/56/74 28/45/65
f 24/56/74 25/52/75 28/45/65
f 25/52/75 26/51/76 28/45/65
f 26/51/76 14/43/63 28/45/65
s off
f 27/38/77 4/18/78 17/21/79 28/58/80
f 3/16/81 27/57/82 28/39/83 16/17/84
